<svg width="80" height="29" viewBox="0 0 80 29" fill="none" xmlns="http://www.w3.org/2000/svg">
<path d="M1.46025 21.872C0.606917 21.5413 0.350917 20.9547 0.69225 20.112L8.30825 1.36C8.62825 0.655999 9.12958 0.303999 9.81225 0.303999H9.87625C10.5696 0.335999 11.0389 0.687999 11.2843 1.36L19.0283 20.112C19.3696 20.9547 19.1243 21.5413 18.2923 21.872C17.4496 22.2027 16.8629 21.9573 16.5323 21.136L14.8043 16.944H4.83625L3.18825 21.136C2.85758 21.968 2.28158 22.2133 1.46025 21.872ZM5.89225 14.256H13.7003L9.71625 4.56L5.89225 14.256ZM24.8283 28.4C23.9323 28.4 23.4843 27.952 23.4843 27.056V7.12C23.4843 6.224 23.9323 5.776 24.8283 5.776C25.7243 5.776 26.1723 6.224 26.1723 7.12V7.52C26.7483 6.944 27.4576 6.512 28.3003 6.224C29.1536 5.92533 30.1083 5.776 31.1643 5.776H32.3803C34.5136 5.776 36.0923 6.288 37.1163 7.312C38.1403 8.336 38.6523 9.91467 38.6523 12.048V15.728C38.6523 17.8507 38.1403 19.4293 37.1163 20.464C36.0923 21.488 34.5136 22 32.3803 22H26.1723V27.056C26.1723 27.952 25.7243 28.4 24.8283 28.4ZM26.1723 19.312H32.3803C33.7776 19.312 34.7216 19.0613 35.2123 18.56C35.7136 18.0587 35.9643 17.1147 35.9643 15.728V12.048C35.9643 10.6507 35.7136 9.70667 35.2123 9.216C34.7216 8.71467 33.7776 8.464 32.3803 8.464H31.1643C29.8309 8.464 28.6789 8.624 27.7083 8.944C26.7376 9.264 26.2256 9.77067 26.1723 10.464V19.312ZM45.8908 28.4C44.9948 28.4 44.5468 27.952 44.5468 27.056V7.12C44.5468 6.224 44.9948 5.776 45.8908 5.776C46.7868 5.776 47.2348 6.224 47.2348 7.12V7.52C47.8108 6.944 48.5201 6.512 49.3628 6.224C50.2161 5.92533 51.1708 5.776 52.2268 5.776H53.4428C55.5761 5.776 57.1548 6.288 58.1788 7.312C59.2028 8.336 59.7148 9.91467 59.7148 12.048V15.728C59.7148 17.8507 59.2028 19.4293 58.1788 20.464C57.1548 21.488 55.5761 22 53.4428 22H47.2348V27.056C47.2348 27.952 46.7868 28.4 45.8908 28.4ZM47.2348 19.312H53.4428C54.8401 19.312 55.7841 19.0613 56.2748 18.56C56.7761 18.0587 57.0268 17.1147 57.0268 15.728V12.048C57.0268 10.6507 56.7761 9.70667 56.2748 9.216C55.7841 8.71467 54.8401 8.464 53.4428 8.464H52.2268C50.8934 8.464 49.7414 8.624 48.7708 8.944C47.8001 9.264 47.2881 9.77067 47.2348 10.464V19.312ZM69.4173 22C68.0626 22 66.9906 21.7227 66.2013 21.168C65.4119 20.6027 64.9053 19.76 64.6813 18.64C64.6066 18.192 64.6919 17.84 64.9373 17.584C65.1933 17.328 65.5453 17.2 65.9933 17.2C66.4306 17.2 66.7453 17.312 66.9373 17.536C67.1399 17.7493 67.3053 18.0747 67.4333 18.512C67.5613 18.832 67.7746 19.0453 68.0733 19.152C68.3826 19.2587 68.8306 19.312 69.4173 19.312H74.6653C75.4973 19.312 76.0573 19.1787 76.3453 18.912C76.6333 18.6347 76.7773 18.064 76.7773 17.2C76.7773 16.3467 76.6333 15.7813 76.3453 15.504C76.0573 15.2267 75.4973 15.088 74.6653 15.088H69.5133C67.9773 15.088 66.8199 14.6987 66.0413 13.92C65.2626 13.1413 64.8733 11.984 64.8733 10.448C64.8733 8.88 65.2519 7.712 66.0093 6.944C66.7773 6.16533 67.9453 5.776 69.5133 5.776H74.5053C77.0119 5.776 78.4946 6.832 78.9533 8.944C79.0386 9.392 78.9533 9.73867 78.6973 9.984C78.4413 10.2293 78.0893 10.352 77.6413 10.352C77.2253 10.352 76.9159 10.2453 76.7133 10.032C76.5106 9.808 76.3506 9.49867 76.2333 9.104C76.1053 8.848 75.9079 8.67733 75.6413 8.592C75.3853 8.50667 75.0066 8.464 74.5053 8.464H69.5133C68.7026 8.464 68.1746 8.58667 67.9293 8.832C67.6839 9.07733 67.5613 9.616 67.5613 10.448C67.5613 11.216 67.6893 11.7333 67.9453 12C68.2119 12.2667 68.7346 12.4 69.5133 12.4H74.6653C76.2653 12.4 77.4653 12.8 78.2653 13.6C79.0653 14.4 79.4653 15.6 79.4653 17.2C79.4653 18.8107 79.0653 20.016 78.2653 20.816C77.4653 21.6053 76.2653 22 74.6653 22H69.4173Z" fill="white"/>
</svg>
