<svg width="136" height="30" viewBox="0 0 136 30" fill="none" xmlns="http://www.w3.org/2000/svg">
<path d="M7.01763 23C5.19363 23 3.76963 22.632 2.74563 21.896C1.73229 21.16 1.09763 20.024 0.841625 18.488C0.798958 18.0187 0.894958 17.6667 1.12963 17.432C1.36429 17.1973 1.70563 17.08 2.15363 17.08C2.60163 17.08 2.92696 17.1867 3.12963 17.4C3.34296 17.6133 3.48696 17.944 3.56163 18.392C3.72163 19.128 4.06296 19.6347 4.58563 19.912C5.11896 20.1787 5.92963 20.312 7.01763 20.312H11.6256C13.0016 20.312 13.935 20.0667 14.4256 19.576C14.927 19.0747 15.1776 18.1467 15.1776 16.792C15.1776 15.416 14.9216 14.4773 14.4096 13.976C13.8976 13.464 12.9696 13.208 11.6256 13.208H7.65763C5.64163 13.208 4.14296 12.7173 3.16163 11.736C2.19096 10.744 1.70563 9.24 1.70563 7.224C1.70563 5.21867 2.18563 3.73067 3.14563 2.76C4.11629 1.78933 5.60963 1.304 7.62563 1.304H11.4336C13.1296 1.304 14.4576 1.65067 15.4176 2.344C16.3883 3.03733 17.0016 4.09867 17.2576 5.528C17.3216 5.98667 17.2363 6.33867 17.0016 6.584C16.767 6.81867 16.415 6.936 15.9456 6.936C15.519 6.936 15.199 6.824 14.9856 6.6C14.7723 6.376 14.6336 6.05067 14.5696 5.624C14.399 4.99467 14.0736 4.568 13.5936 4.344C13.1136 4.10933 12.3936 3.992 11.4336 3.992H7.62563C6.34563 3.992 5.48696 4.22133 5.04963 4.68C4.61229 5.128 4.39363 5.976 4.39363 7.224C4.39363 8.48267 4.61763 9.34667 5.06563 9.816C5.51363 10.2853 6.37763 10.52 7.65763 10.52H11.6256C13.727 10.52 15.2896 11.032 16.3136 12.056C17.3483 13.08 17.8656 14.6587 17.8656 16.792C17.8656 18.9147 17.3536 20.4827 16.3296 21.496C15.3056 22.4987 13.7376 23 11.6256 23H7.01763ZM25.6699 15.992V16.76C25.6699 18.136 25.9205 19.0747 26.4219 19.576C26.9232 20.0667 27.8672 20.312 29.2539 20.312H31.8779C32.9659 20.312 33.7712 20.2107 34.2939 20.008C34.8165 19.8053 35.1632 19.448 35.3339 18.936C35.4512 18.5307 35.6112 18.2213 35.8139 18.008C36.0272 17.7947 36.3472 17.688 36.7739 17.688C37.2219 17.688 37.5632 17.8053 37.7979 18.04C38.0325 18.2747 38.1072 18.616 38.0219 19.064C37.7872 20.3867 37.1579 21.3733 36.1339 22.024C35.1099 22.6747 33.6912 23 31.8779 23H29.2539C27.1312 23 25.5525 22.488 24.5179 21.464C23.4939 20.44 22.9819 18.872 22.9819 16.76V13.048C22.9819 10.8827 23.4939 9.29333 24.5179 8.28C25.5525 7.256 27.1312 6.75467 29.2539 6.776H31.8779C34.0112 6.776 35.5899 7.288 36.6139 8.312C37.6379 9.32533 38.1499 10.904 38.1499 13.048V14.648C38.1499 15.544 37.7019 15.992 36.8059 15.992H25.6699ZM29.2539 9.464C27.8672 9.44267 26.9232 9.68267 26.4219 10.184C25.9205 10.6853 25.6699 11.64 25.6699 13.048V13.304H35.4619V13.048C35.4619 11.6507 35.2112 10.7067 34.7099 10.216C34.2192 9.71467 33.2752 9.464 31.8779 9.464H29.2539ZM50.2541 23C48.1421 23 46.5848 22.4987 45.5821 21.496C44.5795 20.4933 44.0781 18.9467 44.0781 16.856V9.464H42.5101C41.6141 9.464 41.1661 9.016 41.1661 8.12C41.1661 7.224 41.6141 6.776 42.5101 6.776H44.0781V4.44C44.0781 3.544 44.5261 3.096 45.4221 3.096C46.3181 3.096 46.7661 3.544 46.7661 4.44V6.776H50.4461C51.3421 6.776 51.7901 7.224 51.7901 8.12C51.7901 9.016 51.3421 9.464 50.4461 9.464H46.7661V16.856C46.7661 18.2107 47.0115 19.128 47.5021 19.608C47.9928 20.0773 48.9101 20.312 50.2541 20.312C50.6701 20.312 50.9955 20.4187 51.2301 20.632C51.4755 20.8453 51.5981 21.1867 51.5981 21.656C51.5981 22.552 51.1501 23 50.2541 23ZM63.6604 23C61.5484 23 59.991 22.4987 58.9884 21.496C57.9857 20.4933 57.4844 18.9467 57.4844 16.856V9.464H55.9164C55.0204 9.464 54.5724 9.016 54.5724 8.12C54.5724 7.224 55.0204 6.776 55.9164 6.776H57.4844V4.44C57.4844 3.544 57.9324 3.096 58.8284 3.096C59.7244 3.096 60.1724 3.544 60.1724 4.44V6.776H63.8524C64.7484 6.776 65.1964 7.224 65.1964 8.12C65.1964 9.016 64.7484 9.464 63.8524 9.464H60.1724V16.856C60.1724 18.2107 60.4177 19.128 60.9084 19.608C61.399 20.0773 62.3164 20.312 63.6604 20.312C64.0764 20.312 64.4017 20.4187 64.6364 20.632C64.8817 20.8453 65.0044 21.1867 65.0044 21.656C65.0044 22.552 64.5564 23 63.6604 23ZM71.1146 4.152C70.1013 4.152 69.5946 3.64 69.5946 2.616V1.672C69.5946 0.669333 70.1013 0.167999 71.1146 0.167999H72.0426C73.0133 0.167999 73.4986 0.669333 73.4986 1.672V2.616C73.4986 3.64 73.0133 4.152 72.0426 4.152H71.1146ZM71.5626 23C70.6666 23 70.2186 22.552 70.2186 21.656V8.12C70.2186 7.224 70.6666 6.776 71.5626 6.776C72.4586 6.776 72.9066 7.224 72.9066 8.12V21.656C72.9066 22.552 72.4586 23 71.5626 23ZM80.9064 23C80.0104 23 79.5624 22.552 79.5624 21.656V8.12C79.5624 7.224 80.0104 6.776 80.9064 6.776C81.8024 6.776 82.2504 7.224 82.2504 8.12V8.648C83.381 7.4 85.045 6.776 87.2424 6.776H88.1384C90.2717 6.776 91.8504 7.288 92.8744 8.312C93.8984 9.336 94.4104 10.9147 94.4104 13.048V21.656C94.4104 22.552 93.9624 23 93.0664 23C92.1704 23 91.7224 22.552 91.7224 21.656V13.048C91.7224 11.6507 91.4664 10.7067 90.9544 10.216C90.453 9.71467 89.5144 9.464 88.1384 9.464H87.2424C85.9624 9.464 84.8477 9.61333 83.8984 9.912C82.949 10.2 82.3997 10.6587 82.2504 11.288V21.656C82.2504 22.552 81.8024 23 80.9064 23ZM104.59 29.4C103.299 29.4 102.281 29.1387 101.534 28.616C100.798 28.0933 100.323 27.2987 100.11 26.232C100.035 25.784 100.115 25.432 100.35 25.176C100.585 24.92 100.942 24.792 101.422 24.792C101.827 24.792 102.121 24.8987 102.302 25.112C102.494 25.336 102.659 25.6667 102.798 26.104C102.926 26.3387 103.123 26.4987 103.39 26.584C103.667 26.6693 104.067 26.712 104.59 26.712H110.542C111.342 26.712 111.859 26.584 112.094 26.328C112.339 26.0827 112.462 25.5707 112.462 24.792V21.064C111.886 21.6933 111.171 22.1733 110.318 22.504C109.475 22.8347 108.526 23 107.47 23H106.254C104.131 23 102.553 22.488 101.518 21.464C100.494 20.44 99.9819 18.872 99.9819 16.76V13.048C99.9819 10.904 100.489 9.32533 101.502 8.312C102.526 7.288 104.11 6.776 106.254 6.776H108.878C109.635 6.776 110.313 6.888 110.91 7.112C111.518 7.336 112.035 7.67733 112.462 8.136V8.12C112.462 7.224 112.91 6.776 113.806 6.776C114.702 6.776 115.15 7.224 115.15 8.12V24.792C115.15 26.36 114.771 27.5173 114.014 28.264C113.267 29.0213 112.11 29.4 110.542 29.4H104.59ZM106.254 20.312H107.47C108.878 20.312 110.062 20.136 111.022 19.784C111.982 19.432 112.462 18.872 112.462 18.104V11.704C112.462 10.84 112.147 10.2533 111.518 9.944C110.899 9.624 110.019 9.464 108.878 9.464H106.254C104.878 9.464 103.934 9.70933 103.422 10.2C102.921 10.6907 102.67 11.64 102.67 13.048V16.76C102.67 18.1147 102.921 19.048 103.422 19.56C103.923 20.0613 104.867 20.312 106.254 20.312ZM125.308 23C123.953 23 122.881 22.7227 122.092 22.168C121.303 21.6027 120.796 20.76 120.572 19.64C120.497 19.192 120.583 18.84 120.828 18.584C121.084 18.328 121.436 18.2 121.884 18.2C122.321 18.2 122.636 18.312 122.828 18.536C123.031 18.7493 123.196 19.0747 123.324 19.512C123.452 19.832 123.665 20.0453 123.964 20.152C124.273 20.2587 124.721 20.312 125.308 20.312H130.556C131.388 20.312 131.948 20.1787 132.236 19.912C132.524 19.6347 132.668 19.064 132.668 18.2C132.668 17.3467 132.524 16.7813 132.236 16.504C131.948 16.2267 131.388 16.088 130.556 16.088H125.404C123.868 16.088 122.711 15.6987 121.932 14.92C121.153 14.1413 120.764 12.984 120.764 11.448C120.764 9.88 121.143 8.712 121.9 7.944C122.668 7.16533 123.836 6.776 125.404 6.776H130.396C132.903 6.776 134.385 7.832 134.844 9.944C134.929 10.392 134.844 10.7387 134.588 10.984C134.332 11.2293 133.98 11.352 133.532 11.352C133.116 11.352 132.807 11.2453 132.604 11.032C132.401 10.808 132.241 10.4987 132.124 10.104C131.996 9.848 131.799 9.67733 131.532 9.592C131.276 9.50667 130.897 9.464 130.396 9.464H125.404C124.593 9.464 124.065 9.58667 123.82 9.832C123.575 10.0773 123.452 10.616 123.452 11.448C123.452 12.216 123.58 12.7333 123.836 13C124.103 13.2667 124.625 13.4 125.404 13.4H130.556C132.156 13.4 133.356 13.8 134.156 14.6C134.956 15.4 135.356 16.6 135.356 18.2C135.356 19.8107 134.956 21.016 134.156 21.816C133.356 22.6053 132.156 23 130.556 23H125.308Z" fill="white"/>
</svg>
